<?xml version="1.0" encoding="UTF-8" standalone="no"?>
<svg width="25px" height="25px" viewBox="0 0 25 25" version="1.1" xmlns="http://www.w3.org/2000/svg" xmlns:xlink="http://www.w3.org/1999/xlink" xmlns:sketch="http://www.bohemiancoding.com/sketch/ns">
    <!-- Generator: Sketch 3.5.2 (25235) - http://www.bohemiancoding.com/sketch -->
    <title>IG</title>
    <desc>Created with Sketch.</desc>
    <defs></defs>
    <g id="Page-1" stroke="none" stroke-width="1" fill="none" fill-rule="evenodd" sketch:type="MSPage">
        <g id="Contact" sketch:type="MSArtboardGroup" transform="translate(-748.000000, -1238.000000)">
            <g id="Footer" sketch:type="MSLayerGroup" transform="translate(0.000000, 1105.000000)">
                <g id="Group" transform="translate(668.000000, 133.000000)" sketch:type="MSShapeGroup">
                    <g id="IG" transform="translate(80.000000, 0.000000)">
                        <path d="M0.327513503,12.5 C0.327513503,5.59644029 5.84016363,0 12.6403629,0 C19.4405622,0 24.9532124,5.59644029 24.9532124,12.5 C24.9532124,19.4035597 19.4405622,25 12.6403629,25 C5.84016363,25 0.327513503,19.4035597 0.327513503,12.5 Z" id="Instagram" fill="#517FA4"></path>
                        <path d="M17.8445513,18.8215799 C18.3558789,18.7114074 18.7737014,18.2783404 18.8736427,17.7561553 C18.8843699,17.6997077 18.8922365,17.6423527 18.9013545,17.5857236 L18.9013545,7.41427637 C18.892594,7.35855484 18.885085,7.30265181 18.8743579,7.24711179 C18.7647621,6.6773728 18.3018855,6.23523066 17.7335253,6.15627671 C17.7099255,6.15319115 17.6868622,6.14792755 17.66362,6.14375297 L7.61710587,6.14375297 C7.55649746,6.15482468 7.49553148,6.16317383 7.435817,6.17696809 C6.88104446,6.30529095 6.47055211,6.7588678 6.39152876,7.32951431 C6.38831061,7.35329124 6.38348339,7.37688668 6.37937132,7.40066362 L6.37937132,17.5998809 C6.39081361,17.6644961 6.39993169,17.7296558 6.41423456,17.793908 C6.53688167,18.3445891 6.99993706,18.771485 7.55077631,18.8433603 C7.5774154,18.8466273 7.60423328,18.8518909 7.63087238,18.856247 L17.6498535,18.856247 C17.7149315,18.8449938 17.7801884,18.8357371 17.8445513,18.8215799 Z M7.73403182,11.3325705 C7.73403182,13.2138526 7.73385304,15.0951348 7.73421061,16.9764169 C7.73421061,17.2470384 7.96502316,17.4797257 8.23159288,17.4797257 C11.1701174,17.4799072 14.1084631,17.4799072 17.0469875,17.4797257 C17.3160603,17.4797257 17.5456213,17.2474014 17.5456213,16.9747834 C17.5458001,15.0956793 17.5456213,13.2167567 17.5456213,11.3378341 L17.5456213,11.2988109 L16.350259,11.2988109 C16.5190329,11.8464065 16.5708808,12.4034402 16.50473,12.9711827 C16.4382217,13.5391066 16.2580055,14.0676444 15.9644391,14.5557068 C15.670694,15.0443138 15.2898801,15.4490663 14.8236065,15.7712347 C13.6150141,16.6068761 12.0238199,16.680385 10.7413889,15.9496525 C10.0931113,15.5806562 9.58410796,15.0660942 9.22921801,14.4030625 C8.69983307,13.4136878 8.61526735,12.3753072 8.9258184,11.2979034 C8.52927135,11.2982664 8.13433337,11.2982664 7.73403182,11.2982664 L7.73403182,11.3325705 Z M10.1031233,12.4609768 C10.0830993,13.9022948 11.2196411,15.0448584 12.5821681,15.0746249 C13.99994,15.1054805 15.1466726,13.9554753 15.1765298,12.5568105 C15.2071022,11.1144035 14.0610848,9.92301555 12.6404523,9.92392307 C11.2516437,9.92301555 10.122611,11.0574114 10.1031233,12.4609768 Z M17.0643298,9.4040975 C17.3294692,9.39738188 17.5454425,9.16669113 17.5454425,8.89715867 C17.5456213,8.49585478 17.5456213,8.09436939 17.5454425,7.6930655 C17.5454425,7.4052012 17.3210663,7.17614398 17.0378695,7.17596248 C16.6436466,7.17578098 16.2494238,7.17559947 15.8550222,7.17596248 C15.5725405,7.17632549 15.3474491,7.40592721 15.3472703,7.69379151 C15.3470915,8.09164684 15.3460188,8.48950216 15.3487006,8.88753899 C15.3490582,8.94689058 15.3601429,9.00860172 15.3787366,9.06486776 C15.4495358,9.27668216 15.6406579,9.40663855 15.8746886,9.40772757 C16.0649168,9.40809057 16.2551449,9.40754606 16.4455519,9.40754606 C16.6515132,9.40518652 16.8581897,9.40917959 17.0643298,9.4040975 Z" id="Path" fill="#FFFFFF"></path>
                    </g>
                </g>
            </g>
        </g>
    </g>
</svg>