<?xml version="1.0" encoding="UTF-8" standalone="no"?>
<svg width="25px" height="25px" viewBox="0 0 25 25" version="1.1" xmlns="http://www.w3.org/2000/svg" xmlns:xlink="http://www.w3.org/1999/xlink" xmlns:sketch="http://www.bohemiancoding.com/sketch/ns">
    <!-- Generator: Sketch 3.5.2 (25235) - http://www.bohemiancoding.com/sketch -->
    <title>TW</title>
    <desc>Created with Sketch.</desc>
    <defs></defs>
    <g id="Page-1" stroke="none" stroke-width="1" fill="none" fill-rule="evenodd" sketch:type="MSPage">
        <g id="Contact" sketch:type="MSArtboardGroup" transform="translate(-708.000000, -1238.000000)">
            <g id="Footer" sketch:type="MSLayerGroup" transform="translate(0.000000, 1105.000000)">
                <g id="Group" transform="translate(668.000000, 133.000000)" sketch:type="MSShapeGroup">
                    <g id="TW" transform="translate(40.000000, 0.000000)">
                        <path d="M0,12.5 C0,5.59644029 5.51265012,0 12.3128494,0 C19.1130487,0 24.6256989,5.59644029 24.6256989,12.5 C24.6256989,19.4035597 19.1130487,25 12.3128494,25 C5.51265012,25 0,19.4035597 0,12.5 Z" id="Twitter" fill="#4099FF"></path>
                        <path d="M12.0081014,9.953324 L12.0339019,10.3858522 L11.6038941,10.3328896 C10.0386658,10.1298661 8.67124101,9.44135185 7.51021999,8.28500094 L6.94260972,7.71123904 L6.79640707,8.13494014 C6.48680147,9.07944049 6.68460505,10.0769035 7.32961672,10.7477636 C7.67362295,11.118502 7.59622155,11.1714646 7.00281081,10.950787 C6.79640707,10.8801701 6.6158038,10.8272075 6.59860349,10.8536888 C6.5384024,10.9154786 6.74480614,11.7187452 6.90820909,12.036521 C7.13181314,12.4778764 7.58762139,12.9104046 8.08643042,13.1663906 L8.50783805,13.3694141 L8.00902902,13.3782412 C7.5274203,13.3782412 7.51021999,13.3870683 7.56182093,13.5724375 C7.73382404,14.1461994 8.41323634,14.7552697 9.17005004,15.0200829 L9.70325969,15.2054522 L9.23885129,15.4879195 C8.55083883,15.8939664 7.7424242,16.1234712 6.93400956,16.1411254 C6.54700255,16.1499525 6.22879679,16.1852609 6.22879679,16.2117422 C6.22879679,16.3000133 7.27801579,16.7943313 7.88862684,16.9885276 C9.72046,17.5622895 11.8962994,17.3151305 13.530329,16.3353217 C14.69135,15.6379804 15.852371,14.2521247 16.3941808,12.9104046 C16.6865861,12.195409 16.9789914,10.8889973 16.9789914,10.2622727 C16.9789914,9.85622583 17.0047919,9.8032632 17.4864006,9.31777236 C17.7702057,9.03530496 18.0368106,8.72635625 18.0884115,8.63808519 C18.174413,8.47037017 18.1658129,8.47037017 17.727205,8.62043098 C16.9961917,8.88524416 16.8929898,8.84993573 17.2541964,8.45271596 C17.5208012,8.17024856 17.839007,7.65827641 17.839007,7.5082156 C17.839007,7.48173428 17.7100046,7.52586981 17.563802,7.60531377 C17.4089992,7.69358483 17.064993,7.82599142 16.8069883,7.90543538 L16.3425799,8.05549618 L15.9211723,7.76420168 C15.6889681,7.60531377 15.3621621,7.42877165 15.190159,7.37580901 C14.7515511,7.25222952 14.0807389,7.26988374 13.6851318,7.41111743 C12.6101123,7.80833721 11.9307,8.83228152 12.0081014,9.953324 Z" id="Path" fill="#FFFFFF"></path>
                    </g>
                </g>
            </g>
        </g>
    </g>
</svg>